<?xml version="1.0" encoding="UTF-8"?>
<svg id="Layer_1" data-name="Layer 1" xmlns="http://www.w3.org/2000/svg" viewBox="0 0 500 500">
  <defs>
    <style>
      .cls-1 {
        fill: #e82629;
      }

      .cls-2 {
        fill: #ffcc05;
      }
    </style>
  </defs>
  <path class="cls-1" d="M500,250c0,138.07-111.93,250-250,250S0,388.07,0,250,111.93,0,250,0s250,111.92,250,250"/>
  <polygon class="cls-2" points="259.97 309.09 248.56 309.09 237.15 309.09 237.15 314.78 248.56 314.78 259.97 314.78 259.97 309.09"/>
  <polygon class="cls-2" points="259.97 301.66 248.56 301.66 237.15 301.66 237.15 307.35 248.56 307.35 259.97 307.35 259.97 301.66"/>
  <rect class="cls-2" x="264.11" y="270.65" width="8.43" height="46.41"/>
  <rect class="cls-2" x="321.51" y="304.82" width="11.18" height="12.24"/>
  <polygon class="cls-2" points="272.54 262.85 248.56 262.85 224.58 262.85 224.58 266.93 248.56 266.93 272.54 266.93 272.54 262.85"/>
  <polygon class="cls-2" points="259.97 270.65 248.56 270.65 237.15 270.65 237.15 297.66 248.56 297.66 259.97 297.66 259.97 270.65"/>
  <polygon class="cls-2" points="133.83 254.67 150.66 291.33 160.06 291.33 143.24 254.67 133.83 254.67"/>
  <rect class="cls-2" x="164.44" y="304.82" width="11.18" height="12.24"/>
  <path class="cls-2" d="M380.65,180.97c-7.56,23.06-15.95,45.54-27.4,65.88h32.94c16.13-35.68,32.7-71.08,39.34-113.09-11.23,22.99-26.27,38.61-44.88,47.22"/>
  <polygon class="cls-2" points="175.12 271.02 179.81 297.54 190.99 297.54 186.31 271.02 175.12 271.02"/>
  <rect class="cls-2" x="173.96" y="262.85" width="11.18" height="4.08"/>
  <polygon class="cls-2" points="175.44 297.54 170.76 271.02 159.58 271.02 164.27 297.54 175.44 297.54"/>
  <rect class="cls-2" x="158.41" y="262.85" width="11.18" height="4.08"/>
  <rect class="cls-2" x="311.98" y="262.85" width="11.18" height="4.08"/>
  <rect class="cls-2" x="274.87" y="304.82" width="11.18" height="12.24"/>
  <polygon class="cls-2" points="290.91 271.02 279.73 271.02 275.04 297.54 286.23 297.54 290.91 271.02"/>
  <rect class="cls-2" x="280.9" y="262.85" width="11.18" height="4.08"/>
  <polygon class="cls-2" points="306.46 271.02 295.27 271.02 290.59 297.54 301.77 297.54 306.46 271.02"/>
  <path class="cls-2" d="M340.72,257.33c17.97-30.92,26.26-59.12,31.77-86.56-11.03,17.78-25.38,25.99-39.93,33.59-5.56,15.38-11.13,30.75-16.69,46.13h-11.73v-7h6.77c2.27.78,20.87-62.46,22.16-65.06-17.12,23.08-48.11,38.29-70.4,35.33,3.8,15.66,10.53,30.06,19.75,43.57h58.29Z"/>
  <rect class="cls-2" x="327.53" y="262.85" width="11.18" height="4.08"/>
  <rect class="cls-2" x="296.44" y="262.85" width="11.18" height="4.08"/>
  <polygon class="cls-2" points="306.14 297.54 317.31 297.54 322 271.02 310.82 271.02 306.14 297.54"/>
  <rect class="cls-2" x="189.5" y="262.85" width="11.18" height="4.08"/>
  <rect class="cls-2" x="305.96" y="304.82" width="11.19" height="12.24"/>
  <polygon class="cls-2" points="321.68 297.54 332.86 297.54 337.54 271.02 326.36 271.02 321.68 297.54"/>
  <polygon class="cls-2" points="363.29 254.67 353.88 254.67 337.06 291.33 346.46 291.33 363.29 254.67"/>
  <path class="cls-2" d="M250,257.33h22.15c-9.07-15.38-13.62-34.66-17.64-57.42-2.1,9.65-2.81,13.54-4.52,19.9-1.7-6.35-2.41-10.24-4.52-19.9-4.01,22.76-8.57,42.04-17.63,57.42h22.15Z"/>
  <polygon class="cls-2" points="195.36 297.54 206.54 297.54 201.85 271.02 190.67 271.02 195.36 297.54"/>
  <rect class="cls-2" x="224.58" y="270.65" width="8.43" height="46.41"/>
  <polygon class="cls-2" points="141.3 286.08 126.68 254.67 117.27 254.67 131.88 286.08 141.3 286.08"/>
  <path class="cls-2" d="M119.35,180.97c-18.61-8.61-33.64-24.22-44.88-47.22,6.64,42.01,23.21,77.41,39.35,113.09h32.93c-11.44-20.34-19.84-42.82-27.4-65.88"/>
  <polygon class="cls-2" points="359.93 317.06 368.28 292.42 340.51 317.06 359.93 317.06"/>
  <path class="cls-2" d="M217.57,257.33c9.23-13.52,15.96-27.91,19.74-43.57-22.28,2.96-53.27-12.25-70.4-35.33,1.29,2.6,19.91,65.85,22.16,65.06h6.78v7h-11.74c-5.55-15.38-11.12-30.75-16.68-46.13-14.56-7.6-28.9-15.81-39.93-33.59,5.52,27.43,13.8,55.64,31.77,86.56h58.29Z"/>
  <rect class="cls-2" x="211.07" y="304.82" width="11.18" height="12.24"/>
  <rect class="cls-2" x="290.42" y="304.82" width="11.18" height="12.24"/>
  <polygon class="cls-2" points="355.82 286.08 365.23 286.08 379.85 254.67 370.44 254.67 355.82 286.08"/>
  <rect class="cls-2" x="179.98" y="304.82" width="11.18" height="12.24"/>
  <rect class="cls-2" x="195.52" y="304.82" width="11.18" height="12.24"/>
  <polygon class="cls-2" points="128.84 292.42 137.2 317.06 156.62 317.06 128.84 292.42"/>
  <polygon class="cls-2" points="222.08 297.54 217.39 271.02 206.21 271.02 210.89 297.54 222.08 297.54"/>
  <rect class="cls-2" x="205.04" y="262.85" width="11.19" height="4.08"/>
  <polygon class="cls-2" points="351.62 390.62 351.62 390.52 351.52 390.52 351.62 390.62"/>
  <path class="cls-2" d="M183.18,368.77c0,2.96-.81,5.27-2.43,6.88-1.62,1.62-3.85,2.43-6.7,2.43s-5.12-.82-6.74-2.47c-1.61-1.64-2.43-3.92-2.43-6.84v-21.24h-16.51v20.48c0,2.63.51,5.65,1.54,9.06.63,2.1,1.81,4.17,3.52,6.16,1.72,2,3.61,3.53,5.68,4.61,2.06,1.08,4.64,1.81,7.72,2.17,3.08.37,5.93.55,8.52.55,4.51,0,8.37-.59,11.58-1.79,2.32-.86,4.53-2.32,6.63-4.43,2.11-2.11,3.65-4.56,4.64-7.38.98-2.81,1.48-5.8,1.48-8.96v-20.48h-16.51v21.24Z"/>
  <rect class="cls-2" x="264.06" y="348.06" width="16.77" height="42.51"/>
  <polygon class="cls-2" points="350.84 348.51 328.65 348.51 310.82 361.99 310.82 348.51 294.05 348.51 294.05 390.51 294.05 390.57 310.82 390.57 310.82 390.51 310.82 378.75 314.45 376.01 330.48 390.51 351.52 390.51 325.97 367.3 350.84 348.51"/>
  <path class="cls-2" d="M251.91,351.81c-2.98-2.85-7.47-4.28-13.46-4.28h-27.51v43.03h16.77v-11.81h10.75c6,0,10.48-1.43,13.46-4.28,2.18-2.07,3.56-4.8,4.15-8.16.18-1.05.24-2.11.24-3.16s-.06-2.12-.24-3.16c-.58-3.37-1.97-6.09-4.15-8.17M238.62,366.09s-.01.01-.03.02c-1.12,1.17-3.22,1.76-6.32,1.76h-4.58v-9.45h4.58c3.09,0,5.2.59,6.32,1.76.01,0,.02,0,.03.02,1.54,1.63,1.54,4.25,0,5.88"/>
  <polygon class="cls-2" points="152.81 327.91 156.23 339.65 160.02 339.65 165.53 323.38 161.74 323.38 158.25 335.8 154.69 323.38 151.09 323.38 147.58 335.8 144.05 323.38 140.1 323.38 145.58 339.65 149.35 339.65 152.81 327.91"/>
  <path class="cls-2" d="M168.01,339.65l1.28-3.16h7.53l1.28,3.16h3.93l-6.95-16.27h-3.79l-7.07,16.27h3.79ZM173.08,327.22l2.55,6.32h-5.13l2.58-6.32Z"/>
  <path class="cls-2" d="M187.4,335h3.74l2.58,4.65h4.16l-3.46-5.36c.99-.47,1.75-1.14,2.27-2.05.52-.89.78-1.96.78-3.21,0-1.79-.58-3.18-1.74-4.17-1.16-.99-2.8-1.48-4.93-1.48h-7.07v16.27h3.68v-4.65ZM187.4,326.42h3.39c1.02,0,1.81.23,2.36.69.55.46.82,1.13.82,2.03s-.27,1.61-.82,2.08c-.55.47-1.33.71-2.36.71h-3.39v-5.52Z"/>
  <path class="cls-2" d="M213.88,336.64c.58-1.05.88-2.28.88-3.71v-9.55h-3.68v9.55c0,1.17-.32,2.1-.95,2.76-.63.67-1.48,1-2.55,1s-1.98-.34-2.63-1.01c-.66-.67-.99-1.58-.99-2.75v-9.55h-3.67v9.55c0,1.42.29,2.66.89,3.71.58,1.04,1.43,1.85,2.53,2.41,1.1.58,2.39.85,3.86.85s2.75-.28,3.84-.85c1.08-.57,1.91-1.37,2.49-2.41"/>
  <polygon class="cls-2" points="221.57 329.19 229.45 339.65 232.8 339.65 232.8 323.38 229.31 323.38 229.31 333.88 221.41 323.38 218.05 323.38 218.05 339.65 221.57 339.65 221.57 329.19"/>
  <path class="cls-2" d="M241.5,327.02c.78-.46,1.65-.68,2.59-.68.79,0,1.58.16,2.37.49.79.33,1.49.77,2.09,1.35l2.07-2.63c-.84-.75-1.84-1.34-2.99-1.77-1.15-.43-2.33-.66-3.54-.66-1.66,0-3.16.37-4.52,1.1-1.36.73-2.42,1.73-3.2,3.01-.77,1.28-1.16,2.71-1.16,4.27s.39,3.01,1.14,4.29c.76,1.27,1.8,2.28,3.12,3.02,1.32.74,2.79,1.1,4.42,1.1,1.12,0,2.28-.21,3.49-.59,1.21-.4,2.25-.91,3.12-1.55v-6.32h-5.16v2.96h1.97v1.39c-.52.27-1.06.5-1.62.66-.56.16-1.08.24-1.56.24-.95,0-1.81-.23-2.6-.69-.78-.45-1.4-1.08-1.86-1.88-.46-.81-.68-1.69-.68-2.64s.22-1.83.67-2.61c.45-.78,1.07-1.4,1.85-1.86"/>
  <path class="cls-2" d="M270.84,333.43c1.14-1.04,1.71-2.51,1.71-4.4s-.57-3.18-1.7-4.17c-1.13-.99-2.74-1.48-4.81-1.48h-6.91v16.27h3.67v-4.65h3.23c2.06,0,3.66-.52,4.8-1.57M262.81,331.94v-5.52h3.05c1.04,0,1.83.23,2.38.7.56.45.83,1.13.83,2.03s-.27,1.61-.83,2.08c-.55.47-1.34.71-2.38.71h-3.05Z"/>
  <path class="cls-2" d="M278.94,323.38l-7.07,16.27h3.79l1.28-3.16h7.54l1.27,3.16h3.93l-6.94-16.27h-3.79ZM278.14,333.54l2.58-6.32,2.56,6.32h-5.14Z"/>
  <path class="cls-2" d="M302.65,338.62c1.32-.69,2.34-1.65,3.08-2.88.73-1.23,1.1-2.64,1.1-4.22s-.36-2.98-1.08-4.21c-.73-1.24-1.73-2.2-3.04-2.89-1.3-.68-2.79-1.03-4.44-1.03h-6.91v16.27h6.76c1.69,0,3.2-.34,4.51-1.03M295.05,326.47h3.16c.93,0,1.77.21,2.5.65.73.42,1.32,1.02,1.74,1.79.43.78.64,1.65.64,2.63s-.2,1.85-.6,2.61c-.41.76-.97,1.35-1.68,1.77-.73.43-1.53.64-2.43.64h-3.32v-10.08Z"/>
  <path class="cls-2" d="M312.01,336.49h7.53l1.28,3.16h3.93l-6.95-16.27h-3.79l-7.07,16.27h3.79l1.27-3.16ZM315.8,327.22l2.55,6.32h-5.14l2.58-6.32Z"/>
  <polygon class="cls-2" points="329.96 329.19 337.84 339.65 341.19 339.65 341.19 323.38 337.7 323.38 337.7 333.88 329.8 323.38 326.45 323.38 326.45 339.65 329.96 339.65 329.96 329.19"/>
  <path class="cls-2" d="M349.89,327.02c.78-.46,1.65-.68,2.6-.68.79,0,1.57.16,2.37.49.79.33,1.48.77,2.09,1.35l2.07-2.63c-.84-.75-1.83-1.34-2.99-1.77-1.15-.43-2.33-.66-3.54-.66-1.66,0-3.17.37-4.53,1.1-1.36.73-2.42,1.73-3.2,3.01-.78,1.28-1.16,2.71-1.16,4.27s.38,3.01,1.14,4.29c.76,1.27,1.8,2.28,3.12,3.02,1.32.74,2.79,1.1,4.42,1.1,1.11,0,2.27-.21,3.48-.59,1.21-.4,2.25-.91,3.12-1.55v-6.32h-4.63v2.96h1.44v1.39c-.53.27-1.07.5-1.63.66-.55.16-1.08.24-1.56.24-.94,0-1.81-.23-2.59-.69-.77-.45-1.4-1.08-1.86-1.88-.45-.81-.68-1.69-.68-2.64s.23-1.83.67-2.61c.45-.78,1.07-1.4,1.85-1.86"/>
</svg>