<?xml version="1.0" encoding="UTF-8"?>
<svg id="Layer_1" data-name="Layer 1" xmlns="http://www.w3.org/2000/svg" viewBox="0 0 500 500">
  <defs>
    <style>
      .cls-1 {
        fill: #e82629;
      }

      .cls-2 {
        fill: #ffcc05;
      }
    </style>
  </defs>
  <path class="cls-2" d="M500,250c0,138.07-111.93,250-250,250S0,388.07,0,250,111.93,0,250,0s250,111.93,250,250"/>
  <polygon class="cls-1" points="259.97 309.09 248.56 309.09 237.14 309.09 237.14 314.78 248.56 314.78 259.97 314.78 259.97 309.09"/>
  <polygon class="cls-1" points="259.97 301.66 248.56 301.66 237.14 301.66 237.14 307.35 248.56 307.35 259.97 307.35 259.97 301.66"/>
  <rect class="cls-1" x="264.11" y="270.65" width="8.43" height="46.41"/>
  <rect class="cls-1" x="321.51" y="304.82" width="11.17" height="12.24"/>
  <polygon class="cls-1" points="272.54 262.86 248.56 262.86 224.58 262.86 224.58 266.94 248.56 266.94 272.54 266.94 272.54 262.86"/>
  <polygon class="cls-1" points="259.97 270.65 248.56 270.65 237.14 270.65 237.14 297.65 248.56 297.65 259.97 297.65 259.97 270.65"/>
  <polygon class="cls-1" points="133.83 254.68 150.66 291.34 160.06 291.34 143.24 254.68 133.83 254.68"/>
  <rect class="cls-1" x="164.43" y="304.82" width="11.18" height="12.24"/>
  <path class="cls-1" d="M380.65,180.97c-7.56,23.06-15.95,45.54-27.4,65.87h32.94c16.13-35.68,32.71-71.08,39.35-113.09-11.23,23-26.27,38.6-44.88,47.22"/>
  <polygon class="cls-1" points="190.99 297.55 186.3 271.03 175.11 271.03 179.8 297.55 190.99 297.55"/>
  <rect class="cls-1" x="173.96" y="262.86" width="11.18" height="4.08"/>
  <polygon class="cls-1" points="175.44 297.55 170.76 271.03 159.57 271.03 164.27 297.55 175.44 297.55"/>
  <rect class="cls-1" x="158.41" y="262.86" width="11.17" height="4.08"/>
  <rect class="cls-1" x="311.99" y="262.86" width="11.18" height="4.08"/>
  <rect class="cls-1" x="274.88" y="304.82" width="11.18" height="12.24"/>
  <polygon class="cls-1" points="290.91 271.02 279.73 271.02 275.04 297.55 286.23 297.55 290.91 271.02"/>
  <rect class="cls-1" x="280.9" y="262.86" width="11.18" height="4.08"/>
  <path class="cls-1" d="M333.08,178.43s.05-.05.06-.08c-.01,0-.03.03-.06.08"/>
  <polygon class="cls-1" points="306.46 271.02 295.27 271.02 290.59 297.55 301.77 297.55 306.46 271.02"/>
  <path class="cls-1" d="M340.72,257.34c17.97-30.92,26.26-59.13,31.77-86.57-11.03,17.78-25.38,25.99-39.93,33.6-5.56,15.38-11.13,30.75-16.69,46.12h-11.72v-6.99h6.77c2.27.78,20.87-62.46,22.16-65.07-17.12,23.08-48.11,38.29-70.39,35.33,3.8,15.67,10.52,30.05,19.75,43.58h58.29Z"/>
  <rect class="cls-1" x="327.53" y="262.86" width="11.17" height="4.08"/>
  <rect class="cls-1" x="296.45" y="262.86" width="11.18" height="4.08"/>
  <polygon class="cls-1" points="306.14 297.55 317.31 297.55 322.01 271.03 310.81 271.03 306.14 297.55"/>
  <rect class="cls-1" x="189.5" y="262.86" width="11.18" height="4.08"/>
  <rect class="cls-1" x="305.96" y="304.82" width="11.19" height="12.24"/>
  <polygon class="cls-1" points="321.68 297.55 332.86 297.55 337.55 271.03 326.37 271.03 321.68 297.55"/>
  <polygon class="cls-1" points="363.29 254.68 353.88 254.68 337.06 291.34 346.46 291.34 363.29 254.68"/>
  <path class="cls-1" d="M250,257.34h22.15c-9.07-15.38-13.62-34.66-17.64-57.42-2.11,9.65-2.82,13.55-4.52,19.9-1.7-6.35-2.41-10.24-4.52-19.9-4,22.77-8.57,42.05-17.63,57.42h22.15Z"/>
  <polygon class="cls-1" points="195.35 297.55 206.54 297.55 201.85 271.03 190.66 271.03 195.35 297.55"/>
  <rect class="cls-1" x="224.59" y="270.65" width="8.42" height="46.41"/>
  <polygon class="cls-1" points="141.29 286.09 126.68 254.68 117.27 254.68 131.88 286.09 141.29 286.09"/>
  <path class="cls-1" d="M166.86,178.35s.04.06.06.08c-.03-.05-.05-.09-.06-.08"/>
  <path class="cls-1" d="M119.35,180.97c-18.62-8.61-33.64-24.22-44.88-47.22,6.64,42.01,23.21,77.41,39.35,113.09h32.93c-11.44-20.33-19.85-42.82-27.4-65.87"/>
  <polygon class="cls-1" points="359.93 317.06 368.28 292.42 340.51 317.06 359.93 317.06"/>
  <path class="cls-1" d="M217.57,257.34c9.23-13.52,15.96-27.91,19.75-43.58-22.28,2.96-53.27-12.25-70.39-35.33,1.28,2.61,19.9,65.85,22.16,65.07h6.78v6.99h-11.74c-5.55-15.37-11.12-30.75-16.68-46.12-14.55-7.6-28.9-15.82-39.93-33.6,5.52,27.44,13.8,55.64,31.77,86.57h58.29Z"/>
  <rect class="cls-1" x="211.07" y="304.82" width="11.17" height="12.24"/>
  <rect class="cls-1" x="290.42" y="304.82" width="11.18" height="12.24"/>
  <polygon class="cls-1" points="355.83 286.09 365.23 286.09 379.85 254.68 370.43 254.68 355.83 286.09"/>
  <rect class="cls-1" x="179.98" y="304.82" width="11.18" height="12.24"/>
  <rect class="cls-1" x="195.51" y="304.82" width="11.19" height="12.24"/>
  <polygon class="cls-1" points="128.83 292.42 137.19 317.06 156.62 317.06 128.83 292.42"/>
  <polygon class="cls-1" points="222.08 297.55 217.39 271.03 206.21 271.03 210.89 297.55 222.08 297.55"/>
  <rect class="cls-1" x="205.04" y="262.86" width="11.19" height="4.08"/>
  <polygon class="cls-1" points="351.62 390.63 351.62 390.52 351.52 390.52 351.62 390.63"/>
  <rect class="cls-1" x="294.06" y="390.52" width="16.76" height=".05"/>
  <path class="cls-1" d="M183.18,368.78c0,2.97-.81,5.27-2.43,6.87-1.62,1.62-3.85,2.43-6.7,2.43s-5.12-.82-6.75-2.46c-1.61-1.64-2.42-3.92-2.42-6.85v-21.23h-16.51v20.47c0,2.63.52,5.65,1.54,9.06.63,2.11,1.8,4.17,3.52,6.16,1.72,2,3.62,3.53,5.68,4.61,2.07,1.09,4.64,1.82,7.72,2.17,3.08.37,5.92.55,8.52.55,4.51,0,8.37-.6,11.58-1.79,2.32-.86,4.52-2.32,6.62-4.43,2.11-2.11,3.65-4.56,4.65-7.37.98-2.81,1.47-5.8,1.47-8.96v-20.47h-16.51v21.23Z"/>
  <rect class="cls-1" x="264.06" y="348.07" width="16.76" height="42.51"/>
  <rect class="cls-1" x="294.05" y="348.52" width="16.76" height="42"/>
  <polygon class="cls-1" points="325.97 367.31 350.84 348.52 328.65 348.52 310.81 362 310.81 378.76 314.45 376.01 330.48 390.52 351.52 390.52 325.97 367.31"/>
  <path class="cls-1" d="M256.29,363.15c0-1.05-.06-2.12-.24-3.16-.58-3.37-1.96-6.1-4.15-8.18-2.98-2.85-7.47-4.27-13.46-4.27h-27.52v43.03h16.77v-11.82h10.75c5.99,0,10.48-1.43,13.46-4.28,2.19-2.07,3.57-4.8,4.15-8.17.18-1.04.24-2.11.24-3.16M238.59,366.12c-1.12,1.17-3.22,1.76-6.32,1.76h-4.57v-9.45h4.57c3.1,0,5.2.59,6.32,1.76,0,0,.02,0,.02.02,1.54,1.63,1.54,4.26,0,5.89,0,.01-.02.01-.02.02"/>
  <polygon class="cls-1" points="161.73 323.39 165.52 323.39 160.02 339.66 156.23 339.66 152.81 327.92 149.35 339.66 145.58 339.66 140.1 323.39 144.05 323.39 147.58 335.8 151.09 323.39 154.69 323.39 158.25 335.8 161.73 323.39"/>
  <path class="cls-1" d="M178.1,339.66l-1.28-3.16h-7.53l-1.28,3.16h-3.79l7.07-16.27h3.79l6.95,16.27h-3.93ZM170.5,333.54h5.13l-2.55-6.32-2.58,6.32Z"/>
  <path class="cls-1" d="M193.72,339.66l-2.58-4.65h-3.74v4.65h-3.67v-16.27h7.07c2.12,0,3.77.49,4.93,1.48,1.16.99,1.74,2.38,1.74,4.17,0,1.26-.25,2.32-.78,3.21-.52.9-1.27,1.57-2.27,2.04l3.47,5.37h-4.16ZM187.4,331.94h3.39c1.02,0,1.81-.24,2.36-.72.55-.47.82-1.16.82-2.07s-.27-1.57-.82-2.03c-.55-.47-1.34-.7-2.36-.7h-3.39v5.52Z"/>
  <path class="cls-1" d="M204.94,335.69c.66.68,1.53,1.01,2.63,1.01s1.92-.33,2.56-1c.63-.66.95-1.59.95-2.76v-9.56h3.67v9.56c0,1.43-.29,2.66-.87,3.7-.57,1.04-1.41,1.85-2.5,2.42-1.09.57-2.36.86-3.83.86s-2.76-.29-3.86-.86c-1.1-.57-1.95-1.38-2.53-2.42-.59-1.04-.88-2.27-.88-3.7v-9.56h3.67v9.56c0,1.16.33,2.08.99,2.75"/>
  <polygon class="cls-1" points="229.31 323.39 232.8 323.39 232.8 339.66 229.45 339.66 221.57 329.2 221.57 339.66 218.06 339.66 218.06 323.39 221.41 323.39 229.31 333.89 229.31 323.39"/>
  <path class="cls-1" d="M247.3,331.46h3.19v6.32c-.87.63-1.9,1.15-3.12,1.54-1.21.39-2.37.6-3.49.6-1.63,0-3.1-.37-4.42-1.1-1.32-.74-2.35-1.75-3.12-3.03-.76-1.28-1.14-2.7-1.14-4.29s.38-2.99,1.16-4.27c.78-1.28,1.84-2.28,3.2-3.01,1.36-.72,2.86-1.1,4.51-1.1,1.22,0,2.4.22,3.55.65,1.15.44,2.15,1.02,3,1.77l-2.07,2.63c-.6-.57-1.3-1.02-2.09-1.35-.79-.33-1.58-.49-2.38-.49-.94,0-1.8.23-2.59.69-.78.45-1.4,1.07-1.85,1.86-.45.78-.67,1.65-.67,2.62s.23,1.83.68,2.64c.45.79,1.07,1.42,1.85,1.87.79.45,1.65.69,2.6.69.48,0,1-.08,1.56-.24.56-.16,1.1-.39,1.63-.66v-4.35Z"/>
  <path class="cls-1" d="M270.85,324.87c1.13.99,1.7,2.38,1.7,4.17,0,1.89-.57,3.35-1.71,4.4-1.14,1.05-2.74,1.57-4.8,1.57h-3.23v4.65h-3.67v-16.27h6.9c2.07,0,3.68.49,4.81,1.48M268.23,331.23c.55-.47.82-1.16.82-2.07s-.27-1.57-.82-2.03c-.55-.47-1.34-.7-2.37-.7h-3.05v5.52h3.05c1.03,0,1.83-.24,2.37-.72"/>
  <path class="cls-1" d="M285.75,339.66l-1.27-3.16h-7.53l-1.28,3.16h-3.78l7.06-16.27h3.8l6.95,16.27h-3.93ZM278.14,333.54h5.14l-2.56-6.32-2.58,6.32Z"/>
  <path class="cls-1" d="M302.71,324.42c1.3.7,2.32,1.65,3.03,2.89.73,1.23,1.08,2.63,1.08,4.21s-.37,2.99-1.1,4.22c-.74,1.24-1.77,2.19-3.08,2.89-1.32.68-2.82,1.03-4.51,1.03h-6.76v-16.27h6.91c1.65,0,3.13.35,4.43,1.03M300.8,335.92c.72-.42,1.28-1.01,1.68-1.77.4-.76.6-1.62.6-2.6s-.21-1.85-.64-2.63c-.43-.77-1.01-1.37-1.74-1.79-.74-.44-1.57-.64-2.5-.64h-3.16v10.08h3.32c.9,0,1.7-.21,2.43-.64"/>
  <path class="cls-1" d="M320.82,339.66l-1.28-3.16h-7.53l-1.27,3.16h-3.79l7.07-16.27h3.79l6.95,16.27h-3.93ZM313.22,333.54h5.13l-2.55-6.32-2.58,6.32Z"/>
  <polygon class="cls-1" points="337.7 323.39 341.19 323.39 341.19 339.66 337.84 339.66 329.96 329.2 329.96 339.66 326.45 339.66 326.45 323.39 329.8 323.39 337.7 333.89 337.7 323.39"/>
  <path class="cls-1" d="M355.69,331.46h3.19v6.32c-.87.63-1.9,1.15-3.12,1.54-1.21.39-2.37.6-3.48.6-1.63,0-3.1-.37-4.42-1.1-1.32-.74-2.35-1.75-3.12-3.03-.76-1.28-1.14-2.7-1.14-4.29s.39-2.99,1.17-4.27c.77-1.28,1.83-2.28,3.2-3.01,1.35-.72,2.86-1.1,4.52-1.1,1.21,0,2.38.22,3.54.65,1.15.44,2.15,1.02,2.99,1.77l-2.07,2.63c-.6-.57-1.3-1.02-2.09-1.35-.8-.33-1.58-.49-2.37-.49-.95,0-1.81.23-2.6.69-.78.45-1.39,1.07-1.84,1.86-.45.78-.67,1.65-.67,2.62s.23,1.83.68,2.64c.46.79,1.08,1.42,1.86,1.87.78.45,1.65.69,2.59.69.49,0,1.01-.08,1.56-.24.56-.16,1.1-.39,1.63-.66v-4.35Z"/>
  <rect class="cls-1" x="245.33" y="331.46" width="4.07" height="2.95"/>
  <rect class="cls-1" x="354.25" y="331.46" width="4.07" height="2.95"/>
</svg>